HIERARCHY
ROOT Hips
{
	OFFSET 0.000000 103.266502 0.000000
	CHANNELS 6 Xposition Yposition Zposition Xrotation Yrotation Zrotation 
	JOINT Spine
	{
		OFFSET -0.002400 12.777504 0.315300
		CHANNELS 3 Xrotation Yrotation Zrotation
		JOINT Spine1
		{
			OFFSET -0.002067 5.816869 0.032633
			CHANNELS 3 Xrotation Yrotation Zrotation
			JOINT Spine1_split
			{
				OFFSET -0.002067 5.816869 0.032633
				CHANNELS 3 Xrotation Yrotation Zrotation
				JOINT Spine2
				{
					OFFSET -0.002067 5.816869 0.032633
					CHANNELS 3 Xrotation Yrotation Zrotation
					JOINT Neck
					{
						OFFSET -0.003700 21.199493 -0.826900
						CHANNELS 3 Xrotation Yrotation Zrotation
						JOINT Head
						{
							OFFSET 0.000000 20.442200 4.834800
							CHANNELS 3 Xrotation Yrotation Zrotation
							JOINT HeadTop_End
							{
								OFFSET 0.000000 34.668396 4.968400
								CHANNELS 3 Xrotation Yrotation Zrotation
								End Site
								{
									OFFSET 0.000000 0.000000 0.000000
								}
							}
						}
					}
					JOINT LeftShoulder
					{
						OFFSET 3.288150 8.794197 -1.372250
						CHANNELS 3 Xrotation Yrotation Zrotation
						JOINT LeftShoulder_split
						{
							OFFSET 3.288150 8.794197 -1.372250
							CHANNELS 3 Xrotation Yrotation Zrotation
							JOINT LeftArm
							{
								OFFSET 11.953299 -2.279007 -0.146200
								CHANNELS 3 Xrotation Yrotation Zrotation
								JOINT LeftForeArm
								{
									OFFSET 18.448900 0.000000 0.000000
									CHANNELS 3 Xrotation Yrotation Zrotation
									JOINT LeftHand
									{
										OFFSET 29.527798 0.000000 0.000000
										CHANNELS 3 Xrotation Yrotation Zrotation
										JOINT LeftHandThumb1
										{
											OFFSET 10.739754 -2.369614 9.225399
											CHANNELS 3 Xrotation Yrotation Zrotation
											JOINT LeftHandThumb2
											{
												OFFSET 4.926170 -2.844131 2.844125
												CHANNELS 3 Xrotation Yrotation Zrotation
												JOINT LeftHandThumb3
												{
													OFFSET 4.614891 -2.664413 2.664409
													CHANNELS 3 Xrotation Yrotation Zrotation
													JOINT LeftHandThumb4
													{
														OFFSET 4.432465 -2.559082 2.559083
														CHANNELS 3 Xrotation Yrotation Zrotation
														End Site
														{
															OFFSET 0.000000 0.000000 0.000000
														}
													}
												}
											}
										}
										JOINT LeftHandIndex1
										{
											OFFSET 26.467674 0.187653 6.405298
											CHANNELS 3 Xrotation Yrotation Zrotation
											JOINT LeftHandIndex2
											{
												OFFSET 8.792900 0.000000 0.000000
												CHANNELS 3 Xrotation Yrotation Zrotation
												JOINT LeftHandIndex3
												{
													OFFSET 10.075203 0.000000 0.000000
													CHANNELS 3 Xrotation Yrotation Zrotation
													End Site
													{
														OFFSET 0.000000 0.000000 0.000000
													}
												}
											}
										}
										JOINT LeftHandMiddle1
										{
											OFFSET 25.764404 0.000000 0.000000
											CHANNELS 3 Xrotation Yrotation Zrotation
											JOINT LeftHandMiddle2
											{
												OFFSET 9.393974 0.000000 0.000000
												CHANNELS 3 Xrotation Yrotation Zrotation
												JOINT LeftHandMiddle3
												{
													OFFSET 10.771950 0.000000 0.000000
													CHANNELS 3 Xrotation Yrotation Zrotation
													End Site
													{
														OFFSET 0.000000 0.000000 0.000000
													}
												}
											}
										}
										JOINT LeftHandRing1
										{
											OFFSET 24.660927 0.144547 -6.225808
											CHANNELS 3 Xrotation Yrotation Zrotation
											JOINT LeftHandRing2
											{
												OFFSET 9.393799 0.000000 0.000000
												CHANNELS 3 Xrotation Yrotation Zrotation
												JOINT LeftHandRing3
												{
													OFFSET 9.928497 0.000000 0.000000
													CHANNELS 3 Xrotation Yrotation Zrotation
													End Site
													{
														OFFSET 0.000000 0.000000 0.000000
													}
												}
											}
										}
										JOINT LeftHandPinky1
										{
											OFFSET 23.655350 0.125290 -12.815412
											CHANNELS 3 Xrotation Yrotation Zrotation
											JOINT LeftHandPinky2
											{
												OFFSET 8.425102 0.000000 0.000000
												CHANNELS 3 Xrotation Yrotation Zrotation
												JOINT LeftHandPinky3
												{
													OFFSET 8.147003 0.000000 0.000000
													CHANNELS 3 Xrotation Yrotation Zrotation
													End Site
													{
														OFFSET 0.000000 0.000000 0.000000
													}
												}
											}
										}
									}
								}
							}
						}
					}
					JOINT RightShoulder
					{
						OFFSET -3.249400 8.794197 -1.372250
						CHANNELS 3 Xrotation Yrotation Zrotation
						JOINT RightShoulder_split
						{
							OFFSET -3.249400 8.794197 -1.372250
							CHANNELS 3 Xrotation Yrotation Zrotation
							JOINT RightArm
							{
								OFFSET -11.953299 -2.279007 -0.146200
								CHANNELS 3 Xrotation Yrotation Zrotation
								JOINT RightForeArm
								{
									OFFSET -18.448900 0.000000 0.000000
									CHANNELS 3 Xrotation Yrotation Zrotation
									JOINT RightHand
									{
										OFFSET -29.527802 0.000000 0.000000
										CHANNELS 3 Xrotation Yrotation Zrotation
										JOINT RightHandThumb1
										{
											OFFSET -10.739754 -2.369614 9.225399
											CHANNELS 3 Xrotation Yrotation Zrotation
											JOINT RightHandThumb2
											{
												OFFSET -4.926170 -2.844131 2.844125
												CHANNELS 3 Xrotation Yrotation Zrotation
												JOINT RightHandThumb3
												{
													OFFSET -4.614891 -2.664413 2.664409
													CHANNELS 3 Xrotation Yrotation Zrotation
													JOINT RightHandThumb4
													{
														OFFSET -4.432465 -2.559082 2.559083
														CHANNELS 3 Xrotation Yrotation Zrotation
														End Site
														{
															OFFSET 0.000000 0.000000 0.000000
														}
													}
												}
											}
										}
										JOINT RightHandIndex1
										{
											OFFSET -26.467674 0.187653 6.405298
											CHANNELS 3 Xrotation Yrotation Zrotation
											JOINT RightHandIndex2
											{
												OFFSET -8.792900 0.000000 0.000000
												CHANNELS 3 Xrotation Yrotation Zrotation
												JOINT RightHandIndex3
												{
													OFFSET -10.075203 0.000000 0.000000
													CHANNELS 3 Xrotation Yrotation Zrotation
													End Site
													{
														OFFSET 0.000000 0.000000 0.000000
													}
												}
											}
										}
										JOINT RightHandMiddle1
										{
											OFFSET -25.764404 0.000000 0.000000
											CHANNELS 3 Xrotation Yrotation Zrotation
											JOINT RightHandMiddle2
											{
												OFFSET -9.393974 0.000000 0.000000
												CHANNELS 3 Xrotation Yrotation Zrotation
												JOINT RightHandMiddle3
												{
													OFFSET -10.771950 0.000000 0.000000
													CHANNELS 3 Xrotation Yrotation Zrotation
													End Site
													{
														OFFSET 0.000000 0.000000 0.000000
													}
												}
											}
										}
										JOINT RightHandRing1
										{
											OFFSET -24.660927 0.144547 -6.225808
											CHANNELS 3 Xrotation Yrotation Zrotation
											JOINT RightHandRing2
											{
												OFFSET -9.393799 0.000000 0.000000
												CHANNELS 3 Xrotation Yrotation Zrotation
												JOINT RightHandRing3
												{
													OFFSET -9.928497 0.000000 0.000000
													CHANNELS 3 Xrotation Yrotation Zrotation
													End Site
													{
														OFFSET 0.000000 0.000000 0.000000
													}
												}
											}
										}
										JOINT RightHandPinky1
										{
											OFFSET -23.655350 0.125290 -12.815412
											CHANNELS 3 Xrotation Yrotation Zrotation
											JOINT RightHandPinky2
											{
												OFFSET -8.425102 0.000000 0.000000
												CHANNELS 3 Xrotation Yrotation Zrotation
												JOINT RightHandPinky3
												{
													OFFSET -8.147003 0.000000 0.000000
													CHANNELS 3 Xrotation Yrotation Zrotation
													End Site
													{
														OFFSET 0.000000 0.000000 0.000000
													}
												}
											}
										}
									}
								}
							}
						}
					}
				}
			}
		}
	}
	JOINT LeftUpLeg
	{
		OFFSET 11.394100 -6.187798 -0.413800
		CHANNELS 3 Xrotation Yrotation Zrotation
		JOINT LeftLeg
		{
			OFFSET 0.430247 -32.302673 3.732800
			CHANNELS 3 Xrotation Yrotation Zrotation
			JOINT LeftFoot
			{
				OFFSET -0.430247 -48.264931 -6.423300
				CHANNELS 3 Xrotation Yrotation Zrotation
				JOINT LeftToeBase
				{
					OFFSET 4.230900 -16.068199 23.438400
					CHANNELS 3 Xrotation Yrotation Zrotation
					JOINT LeftToe_End
					{
						OFFSET 4.510700 0.695400 19.974600
						CHANNELS 3 Xrotation Yrotation Zrotation
						End Site
						{
							OFFSET 0.000000 0.000000 0.000000
						}
					}
				}
			}
		}
	}
	JOINT RightUpLeg
	{
		OFFSET -11.333700 -6.187798 -0.413800
		CHANNELS 3 Xrotation Yrotation Zrotation
		JOINT RightLeg
		{
			OFFSET -0.430392 -32.302628 3.733000
			CHANNELS 3 Xrotation Yrotation Zrotation
			JOINT RightFoot
			{
				OFFSET 0.430392 -48.264973 -6.423500
				CHANNELS 3 Xrotation Yrotation Zrotation
				JOINT RightToeBase
				{
					OFFSET -4.230900 -16.068199 23.438400
					CHANNELS 3 Xrotation Yrotation Zrotation
					JOINT RightToe_End
					{
						OFFSET -4.510700 0.695400 19.974600
						CHANNELS 3 Xrotation Yrotation Zrotation
						End Site
						{
							OFFSET 0.000000 0.000000 0.000000
						}
					}
				}
			}
		}
	}
}
MOTION
Frames: 4
Frame Time: 0.016667
0.646149 97.610123 0.310220 -2.792320 -0.974078 2.932350 -3.685370 2.043813 2.330674 1.825086 0.204639 -3.563413 0.000000 0.000000 0.000000 1.839735 0.222339 -3.555416 0.005326 -3.044289 -0.019016 5.669664 4.099742 0.112405 0.000000 0.000000 -0.000000 3.264881 -13.066459 -8.920290 0.000000 0.000000 0.000000 12.299522 32.230806 -77.872257 0.000006 -37.449507 0.000018 11.318187 5.111736 -3.307922 -6.694192 7.651326 20.042551 11.568884 23.611303 -7.394415 5.302251 8.249626 -3.166211 -0.000001 -0.000002 -0.000002 -0.982646 -2.594469 -15.812754 0.762403 3.154216 -27.170300 0.000000 -0.000001 0.000000 -0.144670 0.710057 -18.764169 0.628383 2.878563 -24.623949 -0.000000 0.000000 0.000005 0.773675 3.364644 -19.548493 1.234023 3.938343 -34.783613 0.000000 -0.000000 -0.000003 3.973835 12.688238 -18.446041 1.306900 -0.043999 -36.042703 0.000000 -0.000000 -0.000003 1.454488 14.110498 8.503200 0.000000 0.000000 0.000000 54.678338 18.111659 70.211817 -0.000068 75.258781 0.000045 51.346347 35.160598 -70.815893 1.788482 4.679421 9.698156 4.637184 -8.634093 -0.225419 -7.859337 19.055191 -1.516531 0.000003 -0.000000 -0.000000 8.183358 12.621754 -38.427925 0.272886 -1.932500 16.073513 -0.000002 0.000001 -0.000000 3.398858 7.945796 -28.641162 0.564767 -2.749685 23.209748 0.000004 0.000001 0.000000 1.368560 4.899686 -20.505903 0.144634 -1.413637 11.682858 -0.000001 -0.000002 0.000001 -3.372278 -9.628486 -18.358801 0.125290 -1.316624 10.870641 -0.000001 0.000000 0.000000 -7.446082 1.639952 -17.926817 20.032513 9.944202 4.517569 -14.065794 15.535093 9.025784 -7.789675 -0.000003 0.000001 -0.000001 -0.000001 -0.000000 -27.900513 -4.158263 0.685602 26.132217 -9.977830 -3.214108 2.366042 -16.161667 -3.269491 -0.243007 0.000015 0.000002 -0.000000 0.000002 0.000000 
0.654654 97.602867 0.343138 -2.791005 -0.990103 2.960019 -3.751680 2.063328 2.348381 1.845096 0.206904 -3.577332 0.000000 0.000000 0.000000 1.859859 0.224642 -3.569078 0.009548 -3.046896 -0.006451 5.643798 4.101382 0.127782 -0.000000 0.000000 0.000000 3.286008 -13.114654 -8.932844 0.000000 0.000000 0.000000 12.556908 32.167773 -77.897044 0.000001 -37.526794 0.000005 11.076595 5.115569 -3.368697 -6.692586 7.656127 20.048864 11.568507 23.610388 -7.394146 5.302386 8.249946 -3.166264 0.000000 -0.000001 -0.000001 -0.984545 -2.600916 -15.814565 0.762404 3.154228 -27.170428 0.000000 0.000000 0.000004 -0.143601 0.713500 -18.767067 0.628411 2.878619 -24.624458 -0.000001 -0.000000 -0.000003 0.775395 3.369367 -19.550047 1.233927 3.938208 -34.782219 -0.000000 0.000000 -0.000002 3.968878 12.674946 -18.444740 1.307790 -0.042778 -36.055230 0.000000 0.000000 -0.000000 1.454901 14.140045 8.517073 0.000000 0.000000 0.000000 54.746630 17.804520 70.167961 -0.000004 75.583556 0.000009 51.021295 35.499492 -69.947995 1.808280 4.619867 9.771593 4.631467 -8.617681 -0.226293 -7.965941 19.394896 -1.495135 0.000001 -0.000001 -0.000000 8.218627 12.665215 -38.428523 0.260928 -1.890565 15.715335 0.000000 0.000002 -0.000001 3.524981 8.091276 -29.060498 0.542014 -2.696002 22.730412 -0.000002 -0.000000 -0.000001 1.402239 4.961681 -20.710226 0.138316 -1.382720 11.423805 -0.000006 0.000000 0.000001 -3.444552 -9.677826 -18.618966 0.124960 -1.314966 10.856923 0.000001 0.000000 -0.000000 -7.415038 1.621637 -17.964670 20.016098 9.944411 4.512576 -14.088504 15.550601 9.035486 -7.808563 0.000010 0.000002 -0.000001 0.000001 -0.000000 -27.934558 -4.147460 0.665194 26.209873 -9.972168 -3.233594 2.325424 -16.166187 -3.247737 -0.216073 0.000005 0.000002 -0.000000 -0.000000 -0.000000 
0.663327 97.595963 0.378405 -2.792281 -1.007892 2.984672 -3.807221 2.080215 2.368133 1.862634 0.208559 -3.596378 0.000000 0.000000 0.000000 1.877540 0.226432 -3.587913 0.016664 -3.049434 0.004049 5.628732 4.096246 0.149509 0.000000 0.000000 0.000000 3.318909 -13.200825 -8.955620 0.000000 0.000000 0.000000 12.732005 32.102914 -77.867531 -0.000002 -37.603600 -0.000011 10.795358 5.116862 -3.465653 -6.694210 7.651545 20.054316 11.567908 23.609032 -7.393716 5.302707 8.250672 -3.166451 -0.000000 0.000001 -0.000000 -0.987182 -2.602659 -15.840553 0.762412 3.154234 -27.170503 -0.000001 0.000000 0.000004 -0.146222 0.707053 -18.782528 0.628359 2.878514 -24.623445 -0.000000 0.000000 0.000006 0.775203 3.367810 -19.567968 1.233929 3.938206 -34.782223 0.000000 0.000000 0.000001 3.962191 12.657797 -18.441586 1.308457 -0.041861 -36.064642 0.000000 -0.000000 -0.000002 1.454903 14.165858 8.533176 0.000000 0.000000 0.000000 54.818719 17.557862 70.062359 -0.000063 75.912164 0.000052 50.633808 35.802936 -69.087172 1.823099 4.570004 9.855970 4.626441 -8.603855 -0.227160 -8.052940 19.681661 -1.476574 0.000002 0.000001 -0.000003 8.248159 12.701457 -38.429697 0.251179 -1.855548 15.416437 0.000004 0.000000 -0.000000 3.638021 8.218643 -29.430643 0.523456 -2.651360 22.332760 -0.000000 0.000002 0.000001 1.433999 5.019223 -20.901685 0.132901 -1.355683 11.197515 -0.000004 0.000001 0.000001 -3.501119 -9.709308 -18.829739 0.124329 -1.311670 10.829403 -0.000001 0.000000 -0.000000 -7.370288 1.603027 -18.000322 19.993106 9.944644 4.503166 -14.111582 15.529630 9.048326 -7.850178 0.000004 0.000002 -0.000000 -0.000001 0.000000 -27.963406 -4.135589 0.648623 26.288621 -9.973218 -3.259792 2.281627 -16.193465 -3.218885 -0.200197 0.000005 0.000001 0.000000 0.000002 0.000000 
0.672175 97.589401 0.415774 -2.796122 -1.027050 3.005979 -3.851334 2.093761 2.391617 1.877778 0.209558 -3.619555 0.000000 0.000000 0.000000 1.892845 0.227624 -3.610928 0.026440 -3.051733 0.011327 5.624673 4.084378 0.175621 -0.000000 0.000000 0.000000 3.362987 -13.321776 -8.988035 0.000000 0.000000 0.000000 12.831978 32.035752 -77.788519 -0.000003 -37.677297 -0.000010 10.468718 5.116997 -3.597215 -6.697709 7.641056 20.056186 11.567866 23.608911 -7.393663 5.303660 8.252852 -3.166972 0.000002 -0.000003 -0.000002 -0.989585 -2.601599 -15.873033 0.762407 3.154232 -27.170467 0.000000 -0.000000 0.000001 -0.151402 0.693347 -18.801810 0.628219 2.878210 -24.620721 -0.000001 0.000000 -0.000000 0.773648 3.361980 -19.593996 1.233936 3.938223 -34.782376 -0.000001 -0.000000 -0.000002 3.956803 12.642902 -18.440913 1.308766 -0.041433 -36.069000 0.000000 -0.000000 -0.000002 1.454658 14.189415 8.551596 0.000000 0.000000 0.000000 54.897342 17.361571 69.904138 -0.000012 76.243086 -0.000002 50.198745 36.073197 -68.237654 1.834436 4.526488 9.947614 4.621975 -8.591957 -0.228042 -8.126422 19.931226 -1.460111 0.000001 -0.000000 -0.000000 8.273468 12.732365 -38.431036 0.242920 -1.825320 15.159146 0.000001 -0.000001 0.000000 3.741520 8.332703 -29.765818 0.507819 -2.612995 21.992215 -0.000002 0.000000 -0.000002 1.464259 5.073225 -21.083624 0.128147 -1.331419 10.994418 -0.000001 0.000000 0.000000 -3.546706 -9.728988 -19.006022 0.123503 -1.307319 10.792840 0.000000 0.000000 0.000000 -7.317353 1.574061 -18.042708 19.961452 9.944609 4.498492 -14.135739 15.517039 9.065643 -7.939432 0.000001 0.000001 -0.000001 -0.000001 -0.000000 -27.986630 -4.128084 0.633061 26.367734 -9.970142 -3.288486 2.235161 -16.234907 -3.186462 -0.194399 -0.000002 0.000001 -0.000000 -0.000002 -0.000000 
